<svg xmlns="http://www.w3.org/2000/svg" width="720" height="1080" viewBox="0 0 720 1080">
<rect width="720" height="1080" fill="#f8fafc"/>
<rect width="12" height="1080" fill="#0052ff"/>
<text x="54" y="72" fill="#0052ff" font-family="Inter,Arial,sans-serif" font-size="17" font-weight="800" letter-spacing="2">GENERIC BUY · DRAFT</text>
<text x="54" y="137" fill="#101828" font-family="Inter,Arial,sans-serif" font-size="40" font-weight="800">
  <tspan x="54" dy="0">SOL-USDC becomes</tspan>
  <tspan x="54" dy="50">a closed BUY action</tspan>
</text>
<text x="54" y="224" fill="#667085" font-family="Inter,Arial,sans-serif" font-size="14" font-weight="800" letter-spacing="1">SIMULATION ONLY · FIXTURE DATA · NO LIVE ORDER</text>
<rect x="54" y="259" width="74" height="7" rx="3.5" fill="#0052ff"/>
<g transform="translate(54 330)" font-family="Inter,Arial,sans-serif">
  <rect width="612" height="88" rx="16" fill="#ffffff" stroke="#d0d5dd"/>
  <text x="22" y="30" fill="#667085" font-size="17" font-weight="650">Size</text>
  <text x="22" y="62" fill="#101828" font-size="22" font-weight="760">quote_size = 250 USDC</text>
</g>
<g transform="translate(54 442)" font-family="Inter,Arial,sans-serif">
  <rect width="612" height="88" rx="16" fill="#ffffff" stroke="#d0d5dd"/>
  <text x="22" y="30" fill="#667085" font-size="17" font-weight="650">Funding</text>
  <text x="22" y="62" fill="#101828" font-size="22" font-weight="760">held USDC · required 252</text>
</g>
<g transform="translate(54 554)" font-family="Inter,Arial,sans-serif">
  <rect width="612" height="88" rx="16" fill="#ffffff" stroke="#d0d5dd"/>
  <text x="22" y="30" fill="#667085" font-size="17" font-weight="650">Price</text>
  <text x="22" y="62" fill="#101828" font-size="22" font-weight="760">fresh best ask · ≤25 bps above</text>
</g>
<g transform="translate(54 666)" font-family="Inter,Arial,sans-serif">
  <rect width="612" height="88" rx="16" fill="#ffffff" stroke="#d0d5dd"/>
  <text x="22" y="30" fill="#667085" font-size="17" font-weight="650">Costs</text>
  <text x="22" y="62" fill="#101828" font-size="22" font-weight="760">≤2 fee · ≤252 total debit</text>
</g>
<g transform="translate(54 778)" font-family="Inter,Arial,sans-serif">
  <rect width="612" height="88" rx="16" fill="#ffffff" stroke="#d0d5dd"/>
  <text x="22" y="30" fill="#667085" font-size="17" font-weight="650">Authorization</text>
  <text x="22" y="62" fill="#101828" font-size="22" font-weight="760">Pause on exact policy digest</text>
</g>
<text x="54" y="958" fill="#475467" font-family="Inter,Arial,sans-serif" font-size="15" font-weight="800" letter-spacing="1">THE HARNESS DOES NOT AUTHORIZE ITS OWN DRAFT</text>
<text x="666" y="72" text-anchor="end" fill="#98a2b3" font-family="Inter,Arial,sans-serif" font-size="16" font-weight="700">02 / 06</text>
<circle cx="282" cy="1018" r="5" fill="#d0d5dd"/><circle cx="313" cy="1018" r="7" fill="#0052ff"/><circle cx="344" cy="1018" r="5" fill="#d0d5dd"/><circle cx="375" cy="1018" r="5" fill="#d0d5dd"/><circle cx="406" cy="1018" r="5" fill="#d0d5dd"/><circle cx="437" cy="1018" r="5" fill="#d0d5dd"/>
</svg>